<?xml version="1.0" standalone="no"?>
<!DOCTYPE svg PUBLIC "-//W3C//DTD SVG 20010904//EN"
 "http://www.w3.org/TR/2001/REC-SVG-20010904/DTD/svg10.dtd">
<svg version="1.0" xmlns="http://www.w3.org/2000/svg"
 width="600.000000pt" height="600.000000pt" viewBox="0 0 600.000000 600.000000"
 preserveAspectRatio="xMidYMid meet">
<metadata>
Created by potrace 1.11, written by Peter Selinger 2001-2013
</metadata>
<g transform="translate(0.000000,600.000000) scale(0.100000,-0.100000)"
fill="#000000" stroke="none">
<path d="M0 4000 l0 -2000 533 0 533 0 -27 83 c-146 448 -167 1070 -53 1587
57 261 183 562 317 763 289 430 676 709 1152 832 225 58 328 70 620 70 265 0
344 -7 545 -46 599 -119 1087 -513 1299 -1051 30 -78 75 -244 86 -318 4 -25 9
-53 11 -62 5 -17 -21 -18 -455 -18 l-460 0 -11 43 c-108 415 -437 661 -930
692 -255 17 -502 -45 -700 -175 -285 -187 -463 -476 -544 -880 -37 -182 -48
-318 -48 -565 1 -378 54 -656 165 -870 l42 -80 991 -3 991 -2 41 87 c47 101
88 228 98 302 l7 51 -512 0 -511 0 0 370 0 370 925 0 925 0 0 -590 0 -590 485
0 485 0 0 2000 0 2000 -3000 0 -3000 0 0 -2000z"/>
</g>
</svg>
